<svg width="14" height="15" viewBox="0 0 14 15" fill="none" xmlns="http://www.w3.org/2000/svg">
<path fill-rule="evenodd" clip-rule="evenodd" d="M3.72741 3.21429V3.75H2.28231C1.5845 3.75 0.999295 4.26746 0.926245 4.94908L0.00763831 13.5205C-0.0771087 14.3113 0.554157 15 1.3637 15H12.6363C13.4458 15 14.0771 14.3113 13.9924 13.5205L13.0738 4.94908C13.0007 4.26746 12.4155 3.75 11.7177 3.75H10.2725V3.21429C10.2725 1.43908 8.80732 0 6.99994 0C5.19257 0 3.72741 1.43908 3.72741 3.21429ZM6.99994 1.07143C5.79503 1.07143 4.81825 2.03082 4.81825 3.21429V3.75H9.18163V3.21429C9.18163 2.03082 8.20486 1.07143 6.99994 1.07143ZM4.81825 6.96429C4.81825 8.14775 5.79503 9.10714 6.99994 9.10714C8.20486 9.10714 9.18163 8.14775 9.18163 6.96429V6.42857C9.18163 6.1327 9.42583 5.89286 9.72706 5.89286C10.0283 5.89286 10.2725 6.1327 10.2725 6.42857V6.96429C10.2725 8.73949 8.80732 10.1786 6.99994 10.1786C5.19257 10.1786 3.72741 8.73949 3.72741 6.96429V6.42857C3.72741 6.1327 3.9716 5.89286 4.27283 5.89286C4.57406 5.89286 4.81825 6.1327 4.81825 6.42857V6.96429Z" fill="black"/>
</svg>
