<svg width="10" height="10" viewBox="0 0 10 10" fill="none"
    xmlns="http://www.w3.org/2000/svg">
    <path d="M3.55 0.199988C3.2 0.0999879 2.8 0.0499878 2.45 0.0499878C2.2 0.0499878 2 0.0999878 1.8 0.299988C1.65 0.449988 1.55 0.699988 1.55 0.949988V1.09999H1.4C0.65 1.09999 0 1.69999 0 2.49999V7.64999C0 8.39999 0.65 9.04999 1.4 9.04999H5.1V1.09999C4.65 0.699988 4.1 0.399988 3.55 0.199988ZM1.4 8.29999C1.05 8.29999 0.75 7.99999 0.75 7.64999V2.49999C0.75 2.14999 1.05 1.84999 1.4 1.84999H1.55V6.64999C1.55 7.14999 1.95 7.49999 2.4 7.54999C2.75 7.54999 3.05 7.64999 3.35 7.74999C3.7 7.89999 4 8.09999 4.2 8.29999H1.4ZM8.6 1.09999H5.6V9.04999H8.6C9.35 9.04999 10 8.39999 10 7.64999V2.49999C10 1.69999 9.35 1.09999 8.6 1.09999ZM8.1 7.49999H6.55C6.35 7.49999 6.15 7.34999 6.15 7.09999C6.15 6.89999 6.3 6.69999 6.55 6.69999H8.1C8.3 6.69999 8.5 6.84999 8.5 7.09999C8.45 7.34999 8.3 7.49999 8.1 7.49999ZM8.1 5.44999H6.55C6.35 5.44999 6.15 5.29999 6.15 5.04999C6.15 4.84999 6.3 4.64999 6.55 4.64999H8.1C8.3 4.64999 8.5 4.79999 8.5 5.04999C8.45 5.24999 8.3 5.44999 8.1 5.44999ZM8.1 3.34999H6.55C6.35 3.34999 6.15 3.19999 6.15 2.94999C6.15 2.74999 6.3 2.54999 6.55 2.54999H8.1C8.3 2.54999 8.5 2.69999 8.5 2.94999C8.45 3.19999 8.3 3.34999 8.1 3.34999Z" fill="#4187FF"/>
</svg>
