<svg width="14" height="14" viewBox="0 0 14 14" fill="none" xmlns="http://www.w3.org/2000/svg">
<path d="M11.8125 0C11.0876 0 10.5 0.587626 10.5 1.3125V12.6875C10.5 13.4124 11.0876 14 11.8125 14H12.6875C13.4124 14 14 13.4124 14 12.6875V1.3125C14 0.587626 13.4124 0 12.6875 0H11.8125Z" fill="black"/>
<path d="M6.5625 3.5C5.83763 3.5 5.25 4.08763 5.25 4.8125V12.6875C5.25 13.4124 5.83763 14 6.5625 14H7.4375C8.16237 14 8.75 13.4124 8.75 12.6875V4.8125C8.75 4.08763 8.16237 3.5 7.4375 3.5H6.5625Z" fill="black"/>
<path d="M1.3125 7C0.587626 7 0 7.58763 0 8.3125V12.6875C0 13.4124 0.587626 14 1.3125 14H2.1875C2.91237 14 3.5 13.4124 3.5 12.6875V8.3125C3.5 7.58763 2.91237 7 2.1875 7H1.3125Z" fill="black"/>
<path fill-rule="evenodd" clip-rule="evenodd" d="M3.5 10.5424C2.71512 10.6913 1.90512 10.7692 1.07692 10.7692C0.714265 10.7692 0.355097 10.7543 0 10.725V8.3125C0 7.58763 0.587626 7 1.3125 7H2.1875C2.91237 7 3.5 7.58763 3.5 8.3125V10.5424ZM8.75 8.24574C7.69477 9.02561 6.51664 9.6487 5.25 10.0806V4.8125C5.25 4.08763 5.83763 3.5 6.5625 3.5H7.4375C8.16237 3.5 8.75 4.08763 8.75 4.8125V8.24574ZM13.7254 0.508974C13.2307 2.87045 12.0914 4.99495 10.5 6.68994V1.3125C10.5 0.587626 11.0876 0 11.8125 0H12.6875C13.1097 0 13.4853 0.199315 13.7254 0.508974Z" fill="#505050"/>
</svg>
