<svg width="14" height="14" viewBox="0 0 14 14" fill="none" xmlns="http://www.w3.org/2000/svg">
<path d="M14 7C14 3.143 10.857 0 7 0C3.136 0 0 3.143 0 7C0 10.857 3.136 14 7 14C8.05 14 9.06501 13.769 10.017 13.307L13.363 13.804C13.524 13.825 13.692 13.769 13.811 13.65C13.923 13.538 13.979 13.37 13.958 13.202L13.44 9.723C13.811 8.848 14 7.938 14 7ZM4.116 7.721C3.724 7.721 3.402 7.399 3.402 7C3.402 6.601 3.724 6.279 4.116 6.279C4.515 6.279 4.837 6.601 4.837 7C4.837 7.399 4.515 7.721 4.116 7.721ZM6.993 7.721C6.601 7.721 6.279 7.399 6.279 7C6.279 6.601 6.601 6.279 6.993 6.279C7.392 6.279 7.714 6.601 7.714 7C7.714 7.399 7.392 7.721 6.993 7.721ZM9.877 7.721C9.478 7.721 9.156 7.399 9.156 7C9.156 6.601 9.478 6.279 9.877 6.279C10.269 6.279 10.591 6.601 10.591 7C10.591 7.399 10.269 7.721 9.877 7.721Z" fill="black"/>
</svg>
