<svg width="13" height="11" viewBox="0 0 13 11" fill="none" xmlns="http://www.w3.org/2000/svg">
<path d="M12.9881 3.99449C12.9881 4.00106 12.9881 4.00704 12.9841 4.01362L11.6676 10.2229C11.6271 10.4415 11.5138 10.6388 11.3472 10.7806C11.1806 10.9225 10.9712 11.0001 10.7551 11H2.24723C2.03119 10.9999 1.82194 10.9223 1.6555 10.7804C1.48905 10.6386 1.37583 10.4414 1.33533 10.2229L0.0188332 4.01362C0.0188332 4.00704 0.0159309 4.00106 0.01477 3.99449C-0.021261 3.78891 0.00905312 3.57683 0.10108 3.39067C0.193108 3.2045 0.341787 3.05448 0.524401 2.96353C0.707014 2.87258 0.913519 2.84571 1.11236 2.88701C1.31121 2.92831 1.49145 3.03552 1.62556 3.19225L3.57998 5.36164L5.65804 0.561972C5.65814 0.559981 5.65814 0.557986 5.65804 0.555994C5.73235 0.390016 5.85128 0.249438 6.00075 0.150903C6.15022 0.0523671 6.32398 0 6.50145 0C6.67893 0 6.85268 0.0523671 7.00216 0.150903C7.15163 0.249438 7.27056 0.390016 7.34487 0.555994C7.34477 0.557986 7.34477 0.559981 7.34487 0.561972L9.42293 5.36164L11.3774 3.19225C11.5117 3.03668 11.6917 2.93052 11.89 2.88989C12.0883 2.84927 12.2941 2.87639 12.4761 2.96715C12.658 3.05791 12.8063 3.20734 12.8983 3.39276C12.9903 3.57818 13.021 3.78945 12.9858 3.99449H12.9881Z" fill="#31C770"/>
<path d="M6.5 11H10.7551C10.7549 11 10.7552 11 10.7551 11C10.9712 11.0001 11.1806 10.9225 11.3472 10.7806C11.5138 10.6388 11.6271 10.4415 11.6676 10.2229L12.9841 4.01362C12.9881 4.00704 12.9881 4.00106 12.9881 3.99449H12.9858C12.9952 3.94018 12.9998 3.88544 13 3.83085C13 3.82891 13 3.82696 13 3.82501C12.9995 3.67549 12.9651 3.52731 12.8983 3.39276C12.8063 3.20734 12.658 3.05791 12.4761 2.96715C12.2941 2.87639 12.0883 2.84927 11.89 2.88989C11.6917 2.93052 11.5117 3.03668 11.3774 3.19225L9.42293 5.36164L7.34487 0.561972V0.555994C7.27056 0.390016 7.15163 0.249438 7.00216 0.150903C6.85268 0.0523671 6.67893 0 6.50145 0C6.50097 0 6.50049 0 6.5 0V11Z" fill="#6EDD9D"/>
</svg>
