<svg width="13" height="14" viewBox="0 0 13 14" fill="none" xmlns="http://www.w3.org/2000/svg">
<path d="M1.1665 3.11765H11.8332M5.1665 10.1765V5.94118M7.83317 10.1765V5.94118M9.1665 13H3.83317C3.09679 13 2.49984 12.3679 2.49984 11.5882V3.82353C2.49984 3.43368 2.79831 3.11765 3.1665 3.11765H9.83317C10.2014 3.11765 10.4998 3.43368 10.4998 3.82353V11.5882C10.4998 12.3679 9.90288 13 9.1665 13ZM5.1665 3.11765H7.83317C8.20136 3.11765 8.49984 2.80161 8.49984 2.41176V1.70588C8.49984 1.31603 8.20136 1 7.83317 1H5.1665C4.79831 1 4.49984 1.31603 4.49984 1.70588V2.41176C4.49984 2.80161 4.79831 3.11765 5.1665 3.11765Z" stroke="#FF615A" stroke-width="1.3" stroke-linecap="round" stroke-linejoin="round"/>
</svg>
