<svg width="16" height="16" viewBox="0 0 16 16" fill="none"
    xmlns="http://www.w3.org/2000/svg">
    <path d="M7.39909 2.53577H3.60809C2.35187 2.53577 1.3335 3.55411 1.3335 4.8103V12.3921C1.3335 13.6483 2.35187 14.6666 3.60809 14.6666H11.1901C12.4463 14.6666 13.4647 13.6483 13.4647 12.3921L13.4647 8.60121M5.12449 10.8757L7.88306 10.3199C8.02951 10.2904 8.16397 10.2183 8.26958 10.1126L14.4449 3.93409C14.741 3.63786 14.7408 3.15769 14.4445 2.86171L13.1363 1.55507C12.8401 1.25922 12.3602 1.25942 12.0642 1.55552L5.88823 7.73469C5.78283 7.84014 5.71086 7.97433 5.68133 8.12046L5.12449 10.8757Z" stroke="#BDBDBD" stroke-width="1.5" stroke-linecap="round" stroke-linejoin="round"/>
</svg>
