<svg width="10" height="9" viewBox="0 0 10 9" fill="none" xmlns="http://www.w3.org/2000/svg">
<path d="M8.03 4.50109V6.17634C8.03 6.47728 7.87999 6.75313 7.63499 6.91865C7.02999 7.3199 6.04001 7.79639 4.74001 7.79639C4.15001 7.79639 2.99 7.68103 1.845 6.91363C1.6 6.75313 1.455 6.47728 1.455 6.17634V4.50611L2.205 4.83713L4.23 5.74497C4.345 5.80014 4.455 5.82022 4.515 5.82524C4.665 5.85533 4.815 5.85534 4.955 5.83026C5.025 5.82023 5.135 5.80014 5.25 5.74497L8.03 4.50109Z" fill="#4187FF"/>
<path d="M10 7.07914C10 7.43525 9.79 7.74622 9.485 7.88666V8.62395C9.485 8.83461 9.315 9.00012 9.11 9.00012C8.9 9.00012 8.735 8.83461 8.735 8.62395V7.88666C8.43 7.74622 8.22 7.43525 8.22 7.07914C8.22 6.72303 8.43 6.41207 8.735 6.27163V3.47287L5.25 5.03274C5.135 5.08791 5.025 5.10797 4.955 5.118C4.815 5.14308 4.665 5.14307 4.515 5.11298C4.455 5.10796 4.345 5.08791 4.23 5.03274L2.205 4.1249L1.455 3.79388L0.585007 3.40265C0.225007 3.24215 0 2.92617 0 2.57006C0 2.21395 0.225007 1.89292 0.585007 1.73242L4.235 0.102328C4.555 -0.0330954 4.92501 -0.0331003 5.24001 0.0973071L8.89999 1.73242C9.25999 1.89292 9.485 2.21395 9.485 2.57006V6.27163C9.79 6.41207 10 6.72303 10 7.07914Z" fill="#4187FF"/>
</svg>
