<svg width="24" height="25" viewBox="0 0 24 25" fill="none" xmlns="http://www.w3.org/2000/svg">
<path d="M7.95 5.5C5.21616 5.5 3 7.68832 3 10.3886C3 13.2187 4.63215 15.8887 7.33125 18.3331C8.25249 19.1668 9.24438 19.8983 10.2281 20.5552C10.5729 20.7845 10.8953 20.9925 11.1844 21.1658C11.3606 21.2716 11.4768 21.348 11.55 21.388C11.8218 21.5373 12.1782 21.5373 12.45 21.388C12.5232 21.348 12.6394 21.2716 12.8156 21.1658C13.1047 20.9925 13.4271 20.7845 13.7719 20.5552C14.7556 19.8983 15.7475 19.1668 16.6687 18.3331C19.3678 15.8887 21 13.2187 21 10.3886C21 7.68832 18.7838 5.5 16.05 5.5C14.4973 5.5 12.9814 6.33552 12.0281 7.55501C11.0986 6.31419 9.58791 5.5 7.95 5.5Z" fill="#313132"/>
<path fill-rule="evenodd" clip-rule="evenodd" d="M20.0547 7.5144C19.871 7.50484 19.6861 7.5 19.5 7.5C13.701 7.5 9 12.201 9 18C9 18.6162 9.05309 19.2201 9.15493 19.8072C9.5112 20.0672 9.87018 20.3161 10.2281 20.5551C10.5729 20.7844 10.8953 20.9924 11.1844 21.1657C11.2633 21.2131 11.3301 21.2545 11.3865 21.2895C11.456 21.3326 11.5096 21.3659 11.55 21.3879C11.8218 21.5373 12.1782 21.5373 12.45 21.3879C12.4904 21.3659 12.544 21.3326 12.6135 21.2895C12.6699 21.2545 12.7367 21.2131 12.8156 21.1657C13.1047 20.9924 13.4271 20.7844 13.7719 20.5551C14.7556 19.8982 15.7475 19.1667 16.6687 18.333C19.3678 15.8887 21 13.2186 21 10.3886C21 9.31429 20.6492 8.32105 20.0547 7.5144Z" fill="#505050"/>
</svg>
