<svg width="21" height="21" viewBox="0 0 21 21" fill="none" xmlns="http://www.w3.org/2000/svg">
<path d="M20.5006 9.62761V16.5056C20.5006 18.7094 18.7786 20.5032 16.6568 20.5032H12.8129V15.583C12.8129 14.927 12.2799 14.394 11.6239 14.394H8.87677C8.22075 14.394 7.69799 14.927 7.69799 15.583V20.5032H3.84387C1.72205 20.5032 0 18.7094 0 16.5056V9.62761C0 8.44882 0.502265 7.33154 1.36329 6.56276L7.76974 0.945591C9.21503 -0.315197 11.2958 -0.315197 12.7309 0.945591L19.1373 6.56276C20.0086 7.33154 20.5006 8.44882 20.5006 9.62761Z" fill="#B3BDC7"/>
<path fill-rule="evenodd" clip-rule="evenodd" d="M20.5011 16.5055V9.62752C20.5011 8.44874 20.0091 7.33145 19.1378 6.56268L18.7129 6.19007C18.3728 6.16354 18.029 6.15002 17.6821 6.15002C10.4642 6.15002 4.61296 12.0013 4.61296 19.2192C4.61296 19.6524 4.63404 20.0807 4.67523 20.5031H7.69846V15.583C7.69846 14.9269 8.22123 14.3939 8.87725 14.3939H11.6243C12.2804 14.3939 12.8134 14.9269 12.8134 15.583V20.5031H16.6572C18.7791 20.5031 20.5011 18.7093 20.5011 16.5055Z" fill="#C3CBD4"/>
</svg>
