<svg width="8" height="6" viewBox="0 0 8 6" fill="none" xmlns="http://www.w3.org/2000/svg">
<path d="M7.87597 0.450125C7.83757 0.42317 7.79371 0.407651 7.74851 0.405027C7.7033 0.402402 7.65825 0.41276 7.61759 0.435125C6.18636 1.22261 5.16419 0.853616 4.08368 0.464374C2.94715 0.0575084 1.77363 -0.364357 0.149691 0.527373C0.104843 0.552003 0.067038 0.590293 0.0405757 0.63789C0.0141134 0.685487 5.53751e-05 0.74048 2.64576e-09 0.796617V5.29389C-6.37056e-06 5.34479 0.0115014 5.39486 0.0334402 5.43937C0.0553791 5.48389 0.0870276 5.5214 0.125407 5.54836C0.163787 5.57533 0.207636 5.59087 0.252827 5.59352C0.298018 5.59617 0.343066 5.58584 0.38373 5.56351C1.81497 4.77603 2.83714 5.14502 3.91931 5.53426C4.56075 5.76488 5.2142 6 5.95298 6C6.52275 6 7.14418 5.8605 7.8503 5.47276C7.89515 5.44813 7.93295 5.40984 7.95941 5.36224C7.98588 5.31465 7.99993 5.25965 7.99999 5.20352V0.706244C8.00039 0.655212 7.98921 0.604909 7.96751 0.560092C7.94581 0.515275 7.9143 0.477426 7.87597 0.450125ZM1.33355 3.90005C1.33355 3.97961 1.30545 4.05592 1.25544 4.11217C1.20542 4.16843 1.13758 4.20004 1.06684 4.20004C0.996107 4.20004 0.928268 4.16843 0.87825 4.11217C0.828232 4.05592 0.800132 3.97961 0.800132 3.90005V1.5001C0.800132 1.42054 0.828232 1.34423 0.87825 1.28797C0.928268 1.23171 0.996107 1.20011 1.06684 1.20011C1.13758 1.20011 1.20542 1.23171 1.25544 1.28797C1.30545 1.34423 1.33355 1.42054 1.33355 1.5001V3.90005ZM4.00066 4.20004C3.78966 4.20004 3.5834 4.12966 3.40796 3.99781C3.23251 3.86595 3.09577 3.67854 3.01503 3.45928C2.93428 3.24001 2.91315 2.99874 2.95432 2.76596C2.99548 2.53319 3.09709 2.31938 3.24629 2.15156C3.39549 1.98374 3.58558 1.86945 3.79253 1.82315C3.99948 1.77685 4.21398 1.80061 4.40892 1.89144C4.60386 1.98226 4.77048 2.13606 4.88771 2.3334C5.00494 2.53073 5.0675 2.76274 5.0675 3.00007C5.0675 3.31832 4.9551 3.62354 4.75503 3.84858C4.55496 4.07362 4.28361 4.20004 4.00066 4.20004ZM7.20119 4.50003C7.20119 4.5796 7.17309 4.6559 7.12307 4.71216C7.07305 4.76842 7.00522 4.80003 6.93448 4.80003C6.86374 4.80003 6.7959 4.76842 6.74589 4.71216C6.69587 4.6559 6.66777 4.5796 6.66777 4.50003V2.10009C6.66777 2.02052 6.69587 1.94422 6.74589 1.88796C6.7959 1.8317 6.86374 1.80009 6.93448 1.80009C7.00522 1.80009 7.07305 1.8317 7.12307 1.88796C7.17309 1.94422 7.20119 2.02052 7.20119 2.10009V4.50003Z" fill="#31C770"/>
</svg>
