<svg width="8" height="7" viewBox="0 0 8 7" fill="none" xmlns="http://www.w3.org/2000/svg">
<path d="M5.86667 1.97153V1.75C5.86667 0.7525 4.60567 0 2.93333 0C1.261 0 0 0.7525 0 1.75V3.34091C0 4.17176 0.875 4.83199 2.13333 5.02966V5.25C2.13333 6.2475 3.39433 7 5.06667 7C6.739 7 8 6.2475 8 5.25V3.65909C8 2.8358 7.15267 2.17477 5.86667 1.97153ZM1.6 4.25051C0.947 4.03295 0.533333 3.6746 0.533333 3.34091V2.78131C0.805333 3.01119 1.16967 3.19653 1.6 3.32102V4.25051ZM4.26667 3.32102C4.697 3.19653 5.06133 3.01119 5.33333 2.78131V3.34091C5.33333 3.6746 4.91967 4.03295 4.26667 4.25051V3.32102ZM3.73333 6.1596C3.08033 5.94205 2.66667 5.58369 2.66667 5.25V5.08415C2.75433 5.08812 2.843 5.09091 2.93333 5.09091C3.06267 5.09091 3.189 5.08574 3.313 5.07699C3.45075 5.13583 3.59107 5.18575 3.73333 5.22653V6.1596ZM3.73333 4.38494C3.46847 4.43163 3.20107 4.4549 2.93333 4.45455C2.66559 4.4549 2.3982 4.43163 2.13333 4.38494V3.43875C2.39859 3.47999 2.66583 3.50045 2.93333 3.5C3.20083 3.50045 3.46807 3.47999 3.73333 3.43875V4.38494ZM5.86667 6.29403C5.33617 6.38684 4.79716 6.38684 4.26667 6.29403V5.34545C4.53184 5.38799 4.79911 5.40925 5.06667 5.40909C5.33417 5.40954 5.60141 5.38908 5.86667 5.34784V6.29403ZM7.46667 5.25C7.46667 5.58369 7.053 5.94205 6.4 6.1596V5.23011C6.83033 5.10562 7.19467 4.92028 7.46667 4.6904V5.25Z" fill="#FBA504"/>
</svg>
