<svg width="14" height="13" viewBox="0 0 14 13" fill="none"
    xmlns="http://www.w3.org/2000/svg">
    <path d="M6.34825 10.1444C6.41574 10.2113 6.4693 10.2908 6.50584 10.3783C6.54238 10.4658 6.56119 10.5596 6.56119 10.6544C6.56119 10.7492 6.54238 10.843 6.50584 10.9305C6.4693 11.018 6.41574 11.0975 6.34825 11.1644L6.03934 11.4716C5.71142 11.7989 5.32151 12.0583 4.89215 12.2348C4.46279 12.4114 4.0025 12.5015 3.5379 12.5C2.83823 12.5002 2.15421 12.294 1.57239 11.9076C0.990559 11.5211 0.537068 10.9717 0.269285 10.3289C0.00150248 9.68611 -0.0685391 8.97875 0.0680216 8.29633C0.204582 7.61392 0.541609 6.98712 1.03646 6.49523L3.13306 4.41025C3.57901 3.96684 4.13603 3.65002 4.74645 3.49259C5.35688 3.33516 5.99852 3.34284 6.60496 3.51485C7.21139 3.68685 7.76058 4.01692 8.19566 4.47088C8.63074 4.92484 8.9359 5.4862 9.07955 6.09684C9.10334 6.18968 9.10826 6.28631 9.09402 6.38107C9.07978 6.47583 9.04666 6.56681 8.9966 6.64868C8.94655 6.73055 8.88057 6.80166 8.80253 6.85784C8.72448 6.91402 8.63595 6.95415 8.54211 6.97587C8.44828 6.9976 8.35102 7.00047 8.25605 6.98434C8.16108 6.96821 8.07031 6.93339 7.98904 6.88192C7.90778 6.83045 7.83766 6.76337 7.7828 6.6846C7.72794 6.60584 7.68944 6.51698 7.66955 6.42323C7.58431 6.06277 7.40381 5.7315 7.1467 5.46365C6.88959 5.1958 6.56521 5.0011 6.2071 4.89968C5.84898 4.79826 5.47012 4.7938 5.10969 4.88676C4.74926 4.97972 4.42034 5.16672 4.15692 5.42844L2.06033 7.51342C1.76808 7.80382 1.56898 8.17388 1.48823 8.5768C1.40748 8.97973 1.44869 9.39742 1.60666 9.77705C1.76463 10.1567 2.03225 10.4812 2.37569 10.7096C2.71913 10.9379 3.12295 11.0599 3.53609 11.06C3.81059 11.0608 4.08252 11.0074 4.33615 10.903C4.58977 10.7985 4.82005 10.6451 5.01366 10.4516L5.32197 10.1444C5.38924 10.0772 5.46921 10.0239 5.55726 9.98746C5.64532 9.95107 5.73975 9.93233 5.83511 9.93233C5.93047 9.93233 6.02489 9.95107 6.11295 9.98746C6.20101 10.0239 6.28097 10.0772 6.34825 10.1444ZM12.9638 1.53027C12.3003 0.870589 11.4004 0.5 10.4621 0.5C9.52382 0.5 8.62394 0.870589 7.96036 1.53027L7.65206 1.83687C7.51604 1.97213 7.43963 2.15558 7.43963 2.34687C7.43963 2.53815 7.51604 2.7216 7.65206 2.85686C7.78807 2.99212 7.97254 3.06811 8.16489 3.06811C8.35725 3.06811 8.54172 2.99212 8.67773 2.85686L8.98664 2.54967C9.37868 2.1598 9.91039 1.94078 10.4648 1.94078C11.0192 1.94078 11.551 2.1598 11.943 2.54967C12.335 2.93953 12.5553 3.4683 12.5553 4.01965C12.5553 4.57101 12.335 5.09978 11.943 5.48964L9.84278 7.57162C9.64921 7.76519 9.41893 7.91864 9.1653 8.02307C8.91167 8.12751 8.63972 8.18085 8.3652 8.18002C7.8943 8.17969 7.43731 8.02117 7.06836 7.73017C6.6994 7.43916 6.44012 7.03275 6.33256 6.57683C6.28903 6.39081 6.17299 6.2296 6.00994 6.12867C5.84689 6.02774 5.65021 5.99535 5.46315 6.03864C5.27609 6.08192 5.11399 6.19733 5.01249 6.35947C4.911 6.52161 4.87843 6.71721 4.92196 6.90323C5.10363 7.67535 5.54225 8.36379 6.1667 8.85693C6.79115 9.35006 7.5648 9.61895 8.36219 9.62001H8.3652C8.83002 9.62127 9.29048 9.53088 9.71995 9.35405C10.1494 9.17722 10.5394 8.91747 10.8672 8.58981L12.9638 6.50483C13.2923 6.17822 13.5529 5.79046 13.7307 5.36369C13.9085 4.93692 14 4.4795 14 4.01755C14 3.55561 13.9085 3.09819 13.7307 2.67142C13.5529 2.24465 13.2923 1.85688 12.9638 1.53027Z" fill="#313132"/>
</svg>
