<svg width="14" height="12" viewBox="0 0 14 12" fill="none" xmlns="http://www.w3.org/2000/svg">
<path d="M6.34825 9.6444C6.41574 9.71129 6.4693 9.79077 6.50584 9.87829C6.54238 9.96581 6.56119 10.0596 6.56119 10.1544C6.56119 10.2492 6.54238 10.343 6.50584 10.4305C6.4693 10.518 6.41574 10.5975 6.34825 10.6644L6.03934 10.9716C5.71142 11.2989 5.32151 11.5583 4.89215 11.7348C4.46279 11.9114 4.0025 12.0015 3.5379 12C2.83823 12.0002 2.15421 11.794 1.57239 11.4076C0.990559 11.0211 0.537068 10.4717 0.269285 9.82893C0.00150248 9.18611 -0.0685391 8.47875 0.0680216 7.79633C0.204582 7.11392 0.541609 6.48712 1.03646 5.99523L3.13306 3.91025C3.57901 3.46684 4.13603 3.15002 4.74645 2.99259C5.35688 2.83516 5.99852 2.84284 6.60496 3.01485C7.21139 3.18685 7.76058 3.51692 8.19566 3.97088C8.63074 4.42484 8.9359 4.9862 9.07955 5.59684C9.10334 5.68968 9.10826 5.78631 9.09402 5.88107C9.07978 5.97583 9.04666 6.06681 8.9966 6.14868C8.94655 6.23055 8.88057 6.30166 8.80253 6.35784C8.72448 6.41402 8.63595 6.45415 8.54211 6.47587C8.44828 6.4976 8.35102 6.50047 8.25605 6.48434C8.16108 6.46821 8.07031 6.43339 7.98904 6.38192C7.90778 6.33045 7.83766 6.26337 7.7828 6.1846C7.72794 6.10584 7.68944 6.01698 7.66955 5.92323C7.58431 5.56277 7.40381 5.2315 7.1467 4.96365C6.88959 4.6958 6.56521 4.5011 6.2071 4.39968C5.84898 4.29826 5.47012 4.2938 5.10969 4.38676C4.74926 4.47972 4.42034 4.66672 4.15692 4.92844L2.06033 7.01342C1.76808 7.30382 1.56898 7.67388 1.48823 8.0768C1.40748 8.47973 1.44869 8.89742 1.60666 9.27705C1.76463 9.65667 2.03225 9.98119 2.37569 10.2096C2.71913 10.4379 3.12295 10.5599 3.53609 10.56C3.81059 10.5608 4.08252 10.5074 4.33615 10.403C4.58977 10.2985 4.82005 10.1451 5.01366 9.9516L5.32197 9.6444C5.38924 9.57719 5.46921 9.52385 5.55726 9.48746C5.64532 9.45107 5.73975 9.43233 5.83511 9.43233C5.93047 9.43233 6.02489 9.45107 6.11295 9.48746C6.20101 9.52385 6.28097 9.57719 6.34825 9.6444ZM12.9638 1.03027C12.3003 0.370589 11.4004 0 10.4621 0C9.52382 0 8.62394 0.370589 7.96036 1.03027L7.65206 1.33687C7.51604 1.47213 7.43963 1.65558 7.43963 1.84687C7.43963 2.03815 7.51604 2.2216 7.65206 2.35686C7.78807 2.49212 7.97254 2.56811 8.16489 2.56811C8.35725 2.56811 8.54172 2.49212 8.67773 2.35686L8.98664 2.04967C9.37868 1.6598 9.91039 1.44078 10.4648 1.44078C11.0192 1.44078 11.551 1.6598 11.943 2.04967C12.335 2.43953 12.5553 2.9683 12.5553 3.51965C12.5553 4.07101 12.335 4.59978 11.943 4.98964L9.84278 7.07162C9.64921 7.26519 9.41893 7.41864 9.1653 7.52307C8.91167 7.62751 8.63972 7.68085 8.3652 7.68002C7.8943 7.67969 7.43731 7.52117 7.06836 7.23017C6.6994 6.93916 6.44012 6.53275 6.33256 6.07683C6.28903 5.89081 6.17299 5.7296 6.00994 5.62867C5.84689 5.52774 5.65021 5.49535 5.46315 5.53864C5.27609 5.58192 5.11399 5.69733 5.01249 5.85947C4.911 6.02161 4.87843 6.21721 4.92196 6.40323C5.10363 7.17535 5.54225 7.86379 6.1667 8.35693C6.79115 8.85006 7.5648 9.11895 8.36219 9.12001H8.3652C8.83002 9.12127 9.29048 9.03088 9.71995 8.85405C10.1494 8.67722 10.5394 8.41747 10.8672 8.08981L12.9638 6.00483C13.2923 5.67822 13.5529 5.29046 13.7307 4.86369C13.9085 4.43692 14 3.9795 14 3.51755C14 3.05561 13.9085 2.59819 13.7307 2.17142C13.5529 1.74465 13.2923 1.35688 12.9638 1.03027Z" fill="#4187FF"/>
</svg>
