<svg width="12" height="12" viewBox="0 0 12 12" fill="none"
    xmlns="http://www.w3.org/2000/svg">
    <path d="M11.8695 2.352L9.64921 0.132001C9.5652 0.0480007 9.45118 0 9.33117 0C9.21115 0 9.09714 0.0480007 9.01313 0.132001L0.138015 9.006C0.0540042 9.09 0.0119982 9.198 0.00599745 9.318L0 11.55C0 11.67 0.0480067 11.784 0.132017 11.868C0.216028 11.952 0.330041 12 0.450056 12L2.68234 11.994C2.80235 11.994 2.91637 11.946 2.99438 11.862L11.8695 2.988C12.0435 2.814 12.0435 2.526 11.8695 2.352ZM9.87123 3.714C9.85923 3.702 9.85923 3.684 9.84123 3.672L8.32904 2.16C8.31704 2.148 8.29904 2.142 8.28703 2.13L9.33117 1.086L10.9154 2.67L9.87123 3.714Z" fill="#FF615A"/>
</svg>
