<svg width="8" height="9" viewBox="0 0 8 9" fill="none" xmlns="http://www.w3.org/2000/svg">
<path d="M6.98643 2.25855L6.56562 1.61865C6.44345 1.41136 6.21267 1.28066 5.93212 1.27165C5.67873 1.27165 5.43892 1.39333 5.3077 1.58259L5.14027 1.82145L4.36651 0.36138C4.1267 -0.044195 3.48869 -0.138842 3.1267 0.235188L1.11312 2.48387C0.393661 3.26348 0 4.2504 0 5.26433C0 5.44008 0.0271455 5.65188 0.0950188 5.96282C0.108593 6.0169 0.122171 6.07549 0.14027 6.13858L0.162889 6.24221C0.579179 7.77889 2.06335 8.88746 3.87783 9.00012H3.90498C5.76471 9.00012 7.42082 7.84648 7.83258 6.26023C7.85521 6.19714 7.86878 6.13406 7.88688 6.07097C7.89593 6.03492 7.90498 5.99887 7.92308 5.93127C7.97738 5.66089 8 5.45811 8 5.29588V5.2373C8 4.19182 7.47964 3.01112 6.98643 2.25855ZM5.20815 7.16151C5.1991 7.19305 5.19004 7.22461 5.18099 7.26066L5.17194 7.3012C5.08145 7.63918 4.81901 7.9231 4.45249 8.08083C4.28054 8.15744 4.09954 8.19798 3.9095 8.2115H3.89141C3.75114 8.2115 3.59276 8.16194 3.40724 8.08083C3.04525 7.9231 2.7828 7.6392 2.67873 7.26066C2.66968 7.22461 2.66516 7.18854 2.66064 7.18403C2.64254 7.0894 2.62896 7.02182 2.62896 6.97676C2.62896 6.62977 2.76922 6.29179 3.01809 6.02141L3.93213 5.00296L4.84615 6.02592C5.09502 6.29179 5.23077 6.62977 5.23077 6.97676C5.23077 7.02182 5.22173 7.09391 5.20815 7.16151Z" fill="#31C770"/>
</svg>
