<svg width="17" height="17" viewBox="0 0 17 17" fill="none"
    xmlns="http://www.w3.org/2000/svg">
    <path fill-rule="evenodd" clip-rule="evenodd" d="M6.1 4C6.1 2.89543 6.99543 2 8.1 2H8.9C10.0046 2 10.9 2.89543 10.9 4V4.4H6.1V4ZM4.1 4.4H2.72C1.76791 4.4 1.29187 4.4 0.928216 4.58529C0.608341 4.74827 0.348274 5.00834 0.185289 5.32822C0 5.69187 0 6.16791 0 7.12V13.58C0 14.5321 0 15.0081 0.185289 15.3718C0.348274 15.6917 0.608341 15.9517 0.928216 16.1147C1.29187 16.3 1.76791 16.3 2.72 16.3H14.28C15.2321 16.3 15.7081 16.3 16.0718 16.1147C16.3917 15.9517 16.6517 15.6917 16.8147 15.3718C17 15.0081 17 14.5321 17 13.58V7.12C17 6.16791 17 5.69187 16.8147 5.32822C16.6517 5.00834 16.3917 4.74827 16.0718 4.58529C15.7081 4.4 15.2321 4.4 14.28 4.4H12.9V4C12.9 1.79086 11.1091 0 8.9 0H8.1C5.89086 0 4.1 1.79086 4.1 4V4.4Z" fill="#313132"/>
    <path fill-rule="evenodd" clip-rule="evenodd" d="M17.0002 11.3732C15.7736 11.8428 14.442 12.1 13.0503 12.1C8.11551 12.1 3.93626 8.8652 2.51733 4.40035C2.58246 4.40028 2.65002 4.40027 2.72017 4.40027H4.10017V4.00027C4.10017 1.79113 5.89103 0.000274658 8.10017 0.000274658H8.90017C11.1093 0.000274658 12.9002 1.79114 12.9002 4.00027V4.40027H14.2802C15.2323 4.40027 15.7083 4.40027 16.072 4.58556C16.3918 4.74855 16.6519 5.00862 16.8149 5.32849C17.0002 5.69214 17.0002 6.16819 17.0002 7.12027V11.3732ZM8.10017 2.00027C6.9956 2.00027 6.10017 2.8957 6.10017 4.00027V4.40027H10.9002V4.00027C10.9002 2.8957 10.0047 2.00027 8.90017 2.00027H8.10017Z" fill="#505050"/>
</svg>
