<svg width="13" height="12" viewBox="0 0 13 12" fill="none" xmlns="http://www.w3.org/2000/svg">
<path d="M7.45918 1.39143L11.5996 3.95136C11.7459 4.04182 11.819 4.08704 11.872 4.14737C11.919 4.20078 11.9542 4.26255 11.9757 4.32907C12 4.40422 12 4.48721 12 4.65318V8.48883C12 9.36783 12 9.80732 11.8202 10.143C11.662 10.4384 11.4096 10.6785 11.0991 10.8289C10.7461 11 10.2841 11 9.36 11H3.64C2.71591 11 2.25387 11 1.90092 10.8289C1.59045 10.6785 1.33803 10.4384 1.17984 10.143C1 9.80732 1 9.36782 1 8.48883V4.65318C1 4.48721 1 4.40422 1.02429 4.32907C1.0458 4.26255 1.08104 4.20078 1.12796 4.14737C1.18096 4.08704 1.25411 4.04182 1.40041 3.95136L5.54082 1.39143M7.45918 1.39143C7.112 1.17677 6.9384 1.06944 6.75136 1.02768C6.58604 0.990772 6.41397 0.990772 6.24864 1.02768C6.0616 1.06944 5.888 1.17677 5.54082 1.39143M7.45918 1.39143L10.8649 3.4971C11.2432 3.73101 11.4324 3.84796 11.4979 3.99627C11.5551 4.12589 11.5551 4.27196 11.4979 4.40158C11.4324 4.54989 11.2432 4.66684 10.8649 4.90075L7.45918 7.00642C7.112 7.22108 6.9384 7.32841 6.75136 7.37017C6.58604 7.40708 6.41397 7.40708 6.24864 7.37017C6.0616 7.32841 5.888 7.22108 5.54082 7.00642L2.13512 4.90075C1.75681 4.66684 1.56765 4.54989 1.50214 4.40158C1.44488 4.27196 1.44488 4.12589 1.50214 3.99627C1.56765 3.84796 1.75681 3.73101 2.13512 3.4971L5.54082 1.39143M11.725 9.95368L8.07145 6.81472M4.92855 6.81472L1.275 9.95368" stroke="#4187FF" stroke-width="1.3" stroke-linecap="round" stroke-linejoin="round"/>
</svg>
