<svg width="19" height="20" viewBox="0 0 19 20" fill="none" xmlns="http://www.w3.org/2000/svg">
<path d="M17.857 10.98L17.3459 10.69C16.9852 10.48 16.9451 10.14 16.9451 10C16.9451 9.86 16.9852 9.52 17.3459 9.31L17.857 9.02C18.388 8.71 18.7688 8.22 18.9191 7.63C19.0794 7.04 18.9992 6.42 18.6986 5.89L17.6666 4.11C17.0353 3.02 15.6225 2.64 14.5303 3.27L14.0193 3.56C13.6585 3.77 13.3379 3.63 13.2277 3.56C13.1074 3.5 12.8269 3.29 12.8269 2.88V2.29C12.8269 1.03 11.7948 0 10.5323 0H8.46813C7.2056 0 6.17352 1.03 6.17352 2.29V2.88C6.17352 3.29 5.89298 3.5 5.78276 3.56C5.66252 3.63 5.34185 3.77 4.98113 3.56L4.47013 3.27C3.37794 2.64 1.9751 3.02 1.34383 4.11L0.311766 5.89C-0.32952 6.98 0.0512702 8.39 1.15348 9.02L1.65448 9.31C2.01521 9.52 2.05528 9.86 2.05528 10C2.05528 10.14 2.01521 10.48 1.65448 10.69L1.15348 10.98C0.0512702 11.61 -0.32952 13.02 0.311766 14.11L1.34383 15.89C1.64444 16.42 2.13544 16.8 2.73664 16.96C3.32783 17.12 3.93906 17.03 4.47013 16.73L4.98113 16.44C5.34185 16.23 5.66252 16.37 5.78276 16.44C5.89298 16.5 6.17352 16.71 6.17352 17.12V17.71C6.17352 18.97 7.2056 20 8.46813 20H10.5323C11.7948 20 12.8269 18.97 12.8269 17.71V17.12C12.8269 16.71 13.1074 16.5 13.2277 16.44C13.3379 16.37 13.6585 16.23 14.0193 16.44L14.5303 16.73C15.0613 17.03 15.6726 17.12 16.2738 16.96C16.865 16.8 17.3559 16.42 17.6666 15.89L18.6986 14.11C18.9992 13.58 19.0794 12.96 18.9191 12.37C18.7688 11.78 18.388 11.29 17.857 10.98ZM6.17352 10C6.17352 8.17 7.66652 6.68 9.5002 6.68C11.3339 6.68 12.8269 8.17 12.8269 10C12.8269 11.83 11.3339 13.32 9.5002 13.32C7.66652 13.32 6.17352 11.83 6.17352 10Z" fill="#B3BDC7"/>
<path fill-rule="evenodd" clip-rule="evenodd" d="M17.3459 10.69L17.8569 10.98C18.388 11.29 18.7687 11.78 18.919 12.37C19.0794 12.96 18.9992 13.58 18.6986 14.11L17.6665 15.89C17.3559 16.42 16.8649 16.8 16.2738 16.96C15.6726 17.12 15.0613 17.03 14.5302 16.73L14.0192 16.44C13.6585 16.23 13.3379 16.37 13.2276 16.44C13.1074 16.5 12.8268 16.71 12.8268 17.12V17.71C12.8268 18.97 11.7948 20 10.5322 20H8.4681C7.20557 20 6.17349 18.97 6.17349 17.71V17.12C6.17349 16.71 5.89295 16.5 5.78273 16.44C5.66249 16.37 5.34182 16.23 4.9811 16.44L4.4701 16.73C4.02632 16.9807 3.52656 17.0847 3.0293 17.0188C3.22573 14.0847 4.40378 11.4193 6.23789 9.34837C6.19565 9.55915 6.17349 9.77705 6.17349 10C6.17349 11.83 7.66649 13.32 9.50017 13.32C11.3338 13.32 12.8268 11.83 12.8268 10C12.8268 8.17812 11.3471 6.69323 9.52456 6.68009C11.4032 5.61079 13.5768 5 15.893 5C16.7206 5 17.53 5.07797 18.3142 5.22697L18.6986 5.89C18.9992 6.42 19.0794 7.04 18.919 7.63C18.7687 8.22 18.388 8.71 17.8569 9.02L17.3459 9.31C16.9852 9.52 16.9451 9.86 16.9451 10C16.9451 10.14 16.9852 10.48 17.3459 10.69Z" fill="#C3CBD4"/>
</svg>
