<svg width="14" height="14" viewBox="0 0 14 14" fill="none" xmlns="http://www.w3.org/2000/svg">
<path d="M14 6.475C14 6.762 13.7619 7 13.4749 7H12.0745C11.7874 7 11.5494 6.762 11.5494 6.475C11.5494 6.188 11.7874 5.95 12.0745 5.95H13.4749C13.7619 5.95 14 6.188 14 6.475Z" fill="#BDBDBD"/>
<path d="M12.2076 2.534L11.0103 3.731C10.9052 3.836 10.7722 3.885 10.6392 3.885C10.5061 3.885 10.3731 3.836 10.2681 3.731C10.065 3.528 10.065 3.192 10.2681 2.989L11.4654 1.792C11.6684 1.589 12.0045 1.589 12.2076 1.792C12.4106 2.002 12.4106 2.331 12.2076 2.534Z" fill="#BDBDBD"/>
<path d="M8.04851 0.525V1.925C8.04851 2.212 7.81045 2.45 7.52338 2.45C7.23631 2.45 6.99825 2.212 6.99825 1.925V0.525C6.99825 0.238 7.23631 0 7.52338 0C7.81045 0 8.04851 0.238 8.04851 0.525Z" fill="#BDBDBD"/>
<path d="M6.99825 1.925V0.525C6.99825 0.238 7.23631 0 7.52338 0C7.81045 0 8.04851 0.238 8.04851 0.525V1.925C8.04851 2.212 7.81045 2.45 7.52338 2.45C7.23631 2.45 6.99825 2.212 6.99825 1.925Z" fill="#BDBDBD"/>
<path d="M10.3101 8.533L9.81295 8.036L8.67167 6.902C8.96574 6.42601 8.90973 5.803 8.50363 5.39C8.27257 5.159 7.96449 5.03301 7.63541 5.03301C7.40435 5.03301 7.1803 5.096 6.99125 5.215L5.84997 4.08101L5.35284 3.584C5.14979 3.381 4.82071 3.374 4.61065 3.584C4.4076 3.787 4.4076 4.123 4.61065 4.326L4.7787 4.494L1.62091 8.554L0.493624 9.681C-0.164541 10.346 -0.164541 11.424 0.493624 12.089L1.79595 13.391C2.13203 13.727 2.56614 13.888 3.00725 13.888C3.44136 13.888 3.87547 13.727 4.21156 13.391L4.98175 12.614L6.21406 13.846C6.31908 13.951 6.45212 14 6.58515 14C6.71818 14 6.85822 13.951 6.95624 13.846C7.15929 13.643 7.15929 13.307 6.95624 13.104L5.77995 11.921L9.39985 9.107L9.56789 9.275C9.66592 9.38 9.79895 9.429 9.93899 9.429C10.072 9.429 10.2051 9.38 10.3101 9.275C10.5131 9.072 10.5131 8.736 10.3101 8.533ZM3.46937 12.649C3.2103 12.901 2.7972 12.901 2.54514 12.649L1.23581 11.347C0.983747 11.088 0.983747 10.675 1.23581 10.423L2.01301 9.646L4.23956 11.872L3.46937 12.649Z" fill="#BDBDBD"/>
<path d="M12.2076 2.534L11.0103 3.731C10.9052 3.836 10.7722 3.885 10.6392 3.885C10.5061 3.885 10.3731 3.836 10.2681 3.731C10.065 3.528 10.065 3.192 10.2681 2.989L11.4654 1.792C11.6684 1.589 12.0045 1.589 12.2076 1.792C12.4106 2.002 12.4106 2.331 12.2076 2.534Z" fill="#BDBDBD"/>
<path d="M14 6.475C14 6.762 13.7619 7 13.4749 7H12.0745C11.7874 7 11.5494 6.762 11.5494 6.475C11.5494 6.188 11.7874 5.95 12.0745 5.95H13.4749C13.7619 5.95 14 6.188 14 6.475Z" fill="#BDBDBD"/>
</svg>
