<svg width="15" height="15" viewBox="0 0 15 15" fill="none" xmlns="http://www.w3.org/2000/svg">
<path d="M12.4838 0.669903C12.4059 0.280383 12.0639 0 11.6667 0C11.2694 0 10.9274 0.280383 10.8495 0.669903L10.6508 1.6637C10.5848 1.99359 10.3269 2.25145 9.99704 2.31742L9.00324 2.51618C8.61372 2.59409 8.33333 2.9361 8.33333 3.33333C8.33333 3.73057 8.61372 4.07258 9.00324 4.15048L9.99704 4.34924C10.3269 4.41522 10.5848 4.67308 10.6508 5.00296L10.8495 5.99676C10.9274 6.38628 11.2694 6.66667 11.6667 6.66667C12.0639 6.66667 12.4059 6.38628 12.4838 5.99676L12.6826 5.00296C12.7486 4.67308 13.0064 4.41522 13.3363 4.34924L14.3301 4.15048C14.7196 4.07258 15 3.73057 15 3.33333C15 2.9361 14.7196 2.59409 14.3301 2.51618L13.3363 2.31742C13.0064 2.25145 12.7486 1.99359 12.6826 1.6637L12.4838 0.669903Z" fill="black"/>
<path d="M4.95724 3.90314C4.84381 3.56286 4.52536 3.33333 4.16667 3.33333C3.80797 3.33333 3.48953 3.56286 3.3761 3.90314L2.80629 5.61257C2.72334 5.86141 2.52808 6.05667 2.27924 6.13962L0.56981 6.70943C0.229525 6.82286 0 7.14131 0 7.5C0 7.85869 0.229525 8.17714 0.56981 8.29057L2.27924 8.86038C2.52808 8.94333 2.72334 9.13859 2.80629 9.38743L3.3761 11.0969C3.48953 11.4371 3.80797 11.6667 4.16667 11.6667C4.52536 11.6667 4.84381 11.4371 4.95724 11.0969L5.52705 9.38743C5.60999 9.13859 5.80525 8.94333 6.05409 8.86038L7.76352 8.29057C8.10381 8.17714 8.33333 7.85869 8.33333 7.5C8.33333 7.14131 8.10381 6.82286 7.76352 6.70943L6.05409 6.13962C5.80525 6.05667 5.60999 5.86141 5.52705 5.61257L4.95724 3.90314Z" fill="black"/>
<path d="M10.7906 10.5698C10.6771 10.2295 10.3587 10 10 10C9.64131 10 9.32286 10.2295 9.20943 10.5698L9.05629 11.0292C8.97334 11.2781 8.77808 11.4733 8.52924 11.5563L8.06981 11.7094C7.72952 11.8229 7.5 12.1413 7.5 12.5C7.5 12.8587 7.72953 13.1771 8.06981 13.2906L8.52924 13.4437C8.77808 13.5267 8.97334 13.7219 9.05629 13.9708L9.20943 14.4302C9.32286 14.7705 9.64131 15 10 15C10.3587 15 10.6771 14.7705 10.7906 14.4302L10.9437 13.9708C11.0267 13.7219 11.2219 13.5267 11.4708 13.4437L11.9302 13.2906C12.2705 13.1771 12.5 12.8587 12.5 12.5C12.5 12.1413 12.2705 11.8229 11.9302 11.7094L11.4708 11.5563C11.2219 11.4733 11.0267 11.2781 10.9437 11.0292L10.7906 10.5698Z" fill="black"/>
<path fill-rule="evenodd" clip-rule="evenodd" d="M6.17188 8.82108C6.54581 8.04068 7.00163 7.30699 7.5282 6.63113L7.76326 6.70948C8.10354 6.82291 8.33307 7.14136 8.33307 7.50005C8.33307 7.85874 8.10354 8.17719 7.76326 8.29062L6.17188 8.82108ZM13.8446 2.41919L14.3298 2.51623C14.7194 2.59414 14.9997 2.93615 14.9997 3.33338C14.9997 3.73062 14.7194 4.07263 14.3298 4.15053L13.336 4.34929C13.0061 4.41527 12.7483 4.67313 12.6823 5.00302L12.4836 5.99681C12.4056 6.38633 12.0636 6.66672 11.6664 6.66672C11.2692 6.66672 10.9272 6.38633 10.8493 5.99681L10.6505 5.00302C10.5845 4.67313 10.3267 4.41527 9.99677 4.34929L9.89446 4.32883C11.0668 3.4661 12.4016 2.8114 13.8446 2.41919ZM9.99973 10.0001C10.3584 10.0001 10.6769 10.2296 10.7903 10.5699L10.9434 11.0293C11.0264 11.2781 11.2217 11.4734 11.4705 11.5563L11.9299 11.7095C12.2702 11.8229 12.4997 12.1414 12.4997 12.5001C12.4997 12.8587 12.2702 13.1772 11.9299 13.2906L11.4705 13.4438C11.2217 13.5267 11.0264 13.722 10.9434 13.9708L10.7903 14.4302C10.6769 14.7705 10.3584 15.0001 9.99973 15.0001C9.64104 15.0001 9.32259 14.7705 9.20917 14.4302L9.05602 13.9708C8.97308 13.722 8.77781 13.5267 8.52898 13.4438L8.06954 13.2906C7.72926 13.1772 7.49973 12.8587 7.49973 12.5001C7.49973 12.1414 7.72926 11.8229 8.06954 11.7095L8.52897 11.5563C8.77781 11.4734 8.97308 11.2781 9.05602 11.0293L9.20917 10.5699C9.32259 10.2296 9.64104 10.0001 9.99973 10.0001Z" fill="#505050"/>
</svg>
