<svg width="21" height="19" viewBox="0 0 21 19" fill="none" xmlns="http://www.w3.org/2000/svg">
<path d="M7.34937 2.1C7.34937 1.11005 7.34937 0.615076 7.6569 0.307538C7.96444 0 8.45942 0 9.44937 0H11.5494C12.5393 0 13.0343 0 13.3418 0.307538C13.6494 0.615076 13.6494 1.11005 13.6494 2.1V18.9H7.34937V2.1Z" fill="#B3BDC7"/>
<path d="M-0.000244141 6.30019C-0.000244141 5.31025 -0.000244141 4.81527 0.307294 4.50773C0.614832 4.2002 1.10981 4.2002 2.09976 4.2002H4.19976C5.18971 4.2002 5.68468 4.2002 5.99222 4.50773C6.29976 4.81527 6.29976 5.31025 6.29976 6.3002V18.9002H-0.000244141V6.30019Z" fill="#B3BDC7"/>
<path d="M14.7 11.5502C14.7 10.5602 14.7 10.0653 15.0075 9.75773C15.315 9.4502 15.81 9.4502 16.8 9.4502H18.9C19.8899 9.4502 20.3849 9.4502 20.6924 9.75773C21 10.0653 21 10.5602 21 11.5502V18.9002H14.7V11.5502Z" fill="#B3BDC7"/>
<path d="M13.6494 7.05902C11.3107 7.28286 9.15444 8.13144 7.34936 9.43594L7.34937 18.9H13.6494L13.6494 7.05902Z" fill="#C3CBD4"/>
<path d="M2.0378 18.9C2.2981 15.4813 3.8917 12.4354 6.29975 10.281L6.29976 18.9002L2.0378 18.9Z" fill="#C3CBD4"/>
<path d="M15.0075 9.75773C14.7 10.0653 14.7 10.5602 14.7 11.5502V18.9002H21V11.5502C21 10.5602 21 10.0653 20.6924 9.75773C20.3849 9.4502 19.8899 9.4502 18.9 9.4502H16.8C15.81 9.4502 15.315 9.4502 15.0075 9.75773Z" fill="#C3CBD4"/>
</svg>
