<svg width="21" height="19" viewBox="0 0 21 19" fill="none" xmlns="http://www.w3.org/2000/svg">
<path d="M7.34943 2.1C7.34943 1.11005 7.34943 0.615076 7.65696 0.307538C7.9645 0 8.45948 0 9.44943 0H11.5494C12.5394 0 13.0344 0 13.3419 0.307538C13.6494 0.615076 13.6494 1.11005 13.6494 2.1V18.9H7.34943V2.1Z" fill="#313132"/>
<path d="M-0.000183105 6.30019C-0.000183105 5.31025 -0.000183105 4.81527 0.307355 4.50773C0.614893 4.2002 1.10987 4.2002 2.09982 4.2002H4.19982C5.18977 4.2002 5.68474 4.2002 5.99228 4.50773C6.29982 4.81527 6.29982 5.31025 6.29982 6.3002V18.9002H-0.000183105V6.30019Z" fill="#313132"/>
<path d="M14.7 11.5502C14.7 10.5602 14.7 10.0653 15.0076 9.75773C15.3151 9.4502 15.8101 9.4502 16.8 9.4502H18.9C19.89 9.4502 20.3849 9.4502 20.6925 9.75773C21 10.0653 21 10.5602 21 11.5502V18.9002H14.7V11.5502Z" fill="#313132"/>
<path d="M13.6494 7.05902C11.3108 7.28286 9.1545 8.13144 7.34942 9.43594L7.34943 18.9H13.6494L13.6494 7.05902Z" fill="#505050"/>
<path d="M2.03786 18.9C2.29816 15.4813 3.89177 12.4354 6.29981 10.281L6.29982 18.9002L2.03786 18.9Z" fill="#505050"/>
<path d="M15.0076 9.75773C14.7 10.0653 14.7 10.5602 14.7 11.5502V18.9002H21V11.5502C21 10.5602 21 10.0653 20.6925 9.75773C20.3849 9.4502 19.89 9.4502 18.9 9.4502H16.8C15.8101 9.4502 15.3151 9.4502 15.0076 9.75773Z" fill="#505050"/>
</svg>
