<svg width="23" height="21" viewBox="0 0 23 21" fill="none" xmlns="http://www.w3.org/2000/svg">
<path d="M18.469 10.3199V14.1609C18.469 14.8509 18.124 15.4834 17.5605 15.8629C16.169 16.7829 13.892 17.8754 10.902 17.8754C9.54501 17.8754 6.877 17.6109 4.2435 15.8514C3.68 15.4834 3.3465 14.8509 3.3465 14.1609V10.3314L5.0715 11.0904L9.72899 13.1719C9.99349 13.2984 10.2465 13.3444 10.3845 13.3559C10.7295 13.4249 11.0745 13.4249 11.3965 13.3674C11.5575 13.3444 11.8105 13.2984 12.075 13.1719L18.469 10.3199Z" fill="#313132"/>
<path d="M23 16.2309C23 17.0474 22.517 17.7604 21.8155 18.0824V19.7728C21.8155 20.2558 21.4245 20.6353 20.953 20.6353C20.47 20.6353 20.0905 20.2558 20.0905 19.7728V18.0824C19.389 17.7604 18.906 17.0474 18.906 16.2309C18.906 15.4144 19.389 14.7014 20.0905 14.3794V7.96237L12.075 11.5389C11.8105 11.6654 11.5575 11.7113 11.3965 11.7343C11.0745 11.7918 10.7295 11.7918 10.3845 11.7228C10.2465 11.7113 9.99349 11.6654 9.72899 11.5389L5.0715 9.45736L3.3465 8.69839L1.34552 7.80136C0.517515 7.43336 0 6.70889 0 5.89239C0 5.07589 0.517515 4.33984 1.34552 3.97184L9.7405 0.234339C10.4765 -0.0761615 11.3275 -0.0761727 12.052 0.222827L20.47 3.97184C21.298 4.33984 21.8155 5.07589 21.8155 5.89239V14.3794C22.517 14.7014 23 15.4144 23 16.2309Z" fill="#313132"/>
<path fill-rule="evenodd" clip-rule="evenodd" d="M21.8155 18.0825C22.517 17.7605 23 17.0475 23 16.231C23 15.4145 22.517 14.7015 21.8155 14.3795V5.89252C21.8155 5.51591 21.7054 5.15642 21.5055 4.84226C21.0215 4.78712 20.5292 4.75879 20.0304 4.75879C15.2758 4.75879 11.1223 7.33248 8.88706 11.1627L9.72903 11.539C9.99353 11.6655 10.2465 11.7115 10.3845 11.723C10.7295 11.792 11.0745 11.792 11.3965 11.7345C11.5575 11.7115 11.8105 11.6655 12.075 11.539L20.0905 7.96251V14.3795C19.389 14.7015 18.906 15.4145 18.906 16.231C18.906 17.0475 19.389 17.7605 20.0905 18.0825V19.773C20.0905 20.256 20.47 20.6355 20.953 20.6355C21.4245 20.6355 21.8155 20.256 21.8155 19.773V18.0825ZM8.21078 12.4935L9.72903 13.172C9.99353 13.2985 10.2465 13.3445 10.3845 13.356C10.7295 13.425 11.0745 13.425 11.3965 13.3675C11.5575 13.3445 11.8105 13.2985 12.075 13.172L18.469 10.32V14.1611C18.469 14.8511 18.124 15.4835 17.5605 15.863C16.169 16.783 13.8921 17.8755 10.9021 17.8755C10.0527 17.8755 8.68983 17.7719 7.14326 17.263C7.19336 15.5711 7.56941 13.961 8.21078 12.4935Z" fill="#505050"/>
</svg>
