<svg width="12" height="10" viewBox="0 0 12 10" fill="none" xmlns="http://www.w3.org/2000/svg">
<path d="M0.824937 4.30498C4.04616 2.89375 6.19414 1.96339 7.26889 1.51389C10.3375 0.230457 10.9751 0.00751165 11.3907 7.13707e-05C11.4822 -0.00146928 11.6865 0.0213098 11.8189 0.12933C11.9307 0.220541 11.9615 0.343753 11.9762 0.430231C11.9909 0.516709 12.0092 0.713707 11.9947 0.867635C11.8284 2.62455 11.1088 6.88813 10.7428 8.8559C10.5879 9.68854 10.2829 9.96772 9.98764 9.99504C9.34596 10.0544 8.8587 9.56863 8.2372 9.15897C7.26468 8.51793 6.71527 8.11888 5.77127 7.49335C4.68032 6.77044 5.38754 6.37312 6.00927 5.72378C6.17198 5.55384 8.99923 2.96797 9.05395 2.73339C9.06079 2.70406 9.06714 2.5947 9.00253 2.53695C8.93793 2.47921 8.84257 2.49895 8.77375 2.51466C8.67621 2.53692 7.1226 3.5695 4.11292 5.61239C3.67193 5.91689 3.2725 6.06525 2.91462 6.05747C2.52009 6.0489 1.76117 5.83316 1.19699 5.64875C0.504996 5.42256 -0.0449838 5.30298 0.00290711 4.91884C0.0278516 4.71876 0.301862 4.51414 0.824937 4.30498Z" fill="#313132"/>
</svg>
