<svg width="12" height="14" viewBox="0 0 12 14" fill="none" xmlns="http://www.w3.org/2000/svg">
<path d="M8.76351 0.6112C8.72834 0.412902 8.70916 0.208048 8.70916 0H6.34499L6.34179 9.64433C6.30343 10.7235 5.42803 11.5913 4.35783 11.5913C4.02547 11.5913 3.71239 11.5068 3.43448 11.3573C3.44407 11.371 3.45245 11.385 3.45972 11.3993L3.44914 11.3851L3.43128 11.3605C2.79862 11.0193 2.36417 10.3464 2.36417 9.56953C2.36417 8.4546 3.25556 7.54772 4.35133 7.54772C4.45815 7.54772 4.56332 7.55747 4.66573 7.57517C4.75932 7.59131 4.85071 7.61406 4.93923 7.64196V5.75664L4.93229 5.75681L4.93923 5.75339V5.18461C4.88224 5.17688 4.82502 5.16999 4.76748 5.16416C4.63123 5.15032 4.49288 5.14231 4.35133 5.14231C1.9521 5.13911 0 7.12512 0 9.56953C0 11.0679 0.734739 12.3942 1.85928 13.1971C2.56547 13.7009 3.42808 14 4.35464 14C6.75387 14 8.70916 12.0107 8.70916 9.56953V4.67746C9.63572 5.3536 10.773 5.75339 11.9999 5.75339V3.88438L12 3.34804C11.3387 3.34804 10.7253 3.14974 10.2077 2.8052C9.4665 2.31441 8.93284 1.52783 8.76351 0.6112Z" fill="#313132"/>
</svg>
