<svg width="32" height="32" viewBox="0 0 32 32" fill="none" xmlns="http://www.w3.org/2000/svg">
<mask id="mask0_6_15890" style="mask-type:alpha" maskUnits="userSpaceOnUse" x="5" y="8" width="21" height="16">
<path d="M20.4 12.5064V12C20.4 9.72 17.0899 8 12.7 8C8.31013 8 5 9.72 5 12V15.6364C5 17.5355 7.29688 19.0445 10.6 19.4964V20C10.6 22.28 13.9101 24 18.3 24C22.6899 24 26 22.28 26 20V16.3636C26 14.4818 23.7757 12.9709 20.4 12.5064ZM9.2 17.7155C7.48587 17.2182 6.4 16.3991 6.4 15.6364V14.3573C7.114 14.8827 8.07037 15.3064 9.2 15.5909V17.7155ZM16.2 15.5909C17.3296 15.3064 18.286 14.8827 19 14.3573V15.6364C19 16.3991 17.9141 17.2182 16.2 17.7155V15.5909ZM14.8 22.0791C13.0859 21.5818 12 20.7627 12 20V19.6209C12.2301 19.63 12.4629 19.6364 12.7 19.6364C13.0395 19.6364 13.3711 19.6245 13.6966 19.6045C14.0582 19.739 14.4266 19.8531 14.8 19.9464V22.0791ZM14.8 18.0227C14.1047 18.1294 13.4028 18.1826 12.7 18.1818C11.9972 18.1826 11.2953 18.1294 10.6 18.0227V15.86C11.2963 15.9543 11.9978 16.001 12.7 16C13.4022 16.001 14.1037 15.9543 14.8 15.86V18.0227ZM20.4 22.3864C19.0074 22.5985 17.5926 22.5985 16.2 22.3864V20.2182C16.8961 20.3154 17.5977 20.364 18.3 20.3636C19.0022 20.3647 19.7037 20.3179 20.4 20.2236V22.3864ZM24.6 20C24.6 20.7627 23.5141 21.5818 21.8 22.0791V19.9545C22.9296 19.67 23.886 19.2464 24.6 18.7209V20Z" fill="#252728"/>
</mask>
<g mask="url(#mask0_6_15890)">
<path d="M20.4 12.5064V12C20.4 9.72 17.0899 8 12.7 8C8.31013 8 5 9.72 5 12V15.6364C5 17.5355 7.29688 19.0445 10.6 19.4964V20C10.6 22.28 13.9101 24 18.3 24C22.6899 24 26 22.28 26 20V16.3636C26 14.4818 23.7757 12.9709 20.4 12.5064ZM9.2 17.7155C7.48587 17.2182 6.4 16.3991 6.4 15.6364V14.3573C7.114 14.8827 8.07037 15.3064 9.2 15.5909V17.7155ZM16.2 15.5909C17.3296 15.3064 18.286 14.8827 19 14.3573V15.6364C19 16.3991 17.9141 17.2182 16.2 17.7155V15.5909ZM14.8 22.0791C13.0859 21.5818 12 20.7627 12 20V19.6209C12.2301 19.63 12.4629 19.6364 12.7 19.6364C13.0395 19.6364 13.3711 19.6245 13.6966 19.6045C14.0582 19.739 14.4266 19.8531 14.8 19.9464V22.0791ZM14.8 18.0227C14.1047 18.1294 13.4028 18.1826 12.7 18.1818C11.9972 18.1826 11.2953 18.1294 10.6 18.0227V15.86C11.2963 15.9543 11.9978 16.001 12.7 16C13.4022 16.001 14.1037 15.9543 14.8 15.86V18.0227ZM20.4 22.3864C19.0074 22.5985 17.5926 22.5985 16.2 22.3864V20.2182C16.8961 20.3154 17.5977 20.364 18.3 20.3636C19.0022 20.3647 19.7037 20.3179 20.4 20.2236V22.3864ZM24.6 20C24.6 20.7627 23.5141 21.5818 21.8 22.0791V19.9545C22.9296 19.67 23.886 19.2464 24.6 18.7209V20Z" fill="#313132"/>
<circle cx="24" cy="23" r="12" fill="#505050"/>
</g>
</svg>
