<svg width="10" height="10" viewBox="0 0 10 10" fill="none" xmlns="http://www.w3.org/2000/svg">
<path d="M6.15988 4.04994C6.33488 3.95494 6.48488 3.82494 6.60988 3.67494C6.85988 3.38994 7.00488 3.00995 7.00488 2.60495C7.00488 1.68995 6.25988 0.944946 5.34488 0.944946C4.67988 0.944946 4.10988 1.33495 3.84488 1.89995C3.57988 1.33495 3.00988 0.944946 2.34488 0.944946C1.42988 0.944946 0.689883 1.68995 0.689883 2.60495C0.689883 3.00995 0.834883 3.38994 1.08488 3.67494C1.20488 3.82494 1.35988 3.94994 1.52988 4.04994C0.649883 4.29994 0.00488281 5.10995 0.00488281 6.07495V7.80495C0.00488281 8.96995 0.949883 9.91495 2.10988 9.91495H5.57988C6.46988 9.91495 7.23488 9.35994 7.53988 8.57994C7.63488 8.34994 7.68488 8.09995 7.68988 7.83495V6.04495C7.68488 5.77995 7.63488 5.52994 7.53988 5.29994C7.30488 4.69494 6.79488 4.22494 6.15988 4.04994Z" fill="#4187FF"/>
<path d="M9.59488 4.96494C9.33488 4.78994 9.00488 4.74993 8.71488 4.85993L8.00988 5.12495C8.09988 5.35495 8.15988 5.59993 8.17988 5.85993C8.18488 5.92993 8.18988 5.99994 8.18988 6.07494V7.80494C8.18988 7.87994 8.18488 7.94994 8.17988 8.01994C8.15988 8.27994 8.09988 8.52494 8.00988 8.75494L8.71488 9.01994C8.82488 9.05994 8.93488 9.07993 9.04988 9.07993C9.23988 9.07993 9.42988 9.02493 9.59488 8.90994C9.84988 8.73494 10.0049 8.43994 10.0049 8.12994V5.74995C10.0049 5.43995 9.84988 5.14494 9.59488 4.96494Z" fill="#4187FF"/>
</svg>
