<svg width="15" height="12" viewBox="0 0 15 12" fill="none" xmlns="http://www.w3.org/2000/svg">
<path d="M2.25 0C1.00725 0 0 1.00732 0 2.25V9.75C0 11.25 0.75 12 2.25 12H12.75C14.25 12 15 11.25 15 9.75V3.75C15 3.33577 14.664 3 14.25 3H13.5V0.75C13.5 0.335775 13.164 0 12.75 0H2.25ZM2.25 1.5H12V3H2.25C1.836 3 1.5 2.66423 1.5 2.25C1.5 1.83578 1.836 1.5 2.25 1.5ZM11.25 6C11.664 6 12 6.33577 12 6.75C12 7.16423 11.664 7.5 11.25 7.5C10.836 7.5 10.5 7.16423 10.5 6.75C10.5 6.33577 10.836 6 11.25 6Z" fill="#252728"/>
<path fill-rule="evenodd" clip-rule="evenodd" d="M5.04108 12H12.7497C14.2497 12 14.9997 11.25 14.9997 9.75V3.75C14.9997 3.33577 14.6637 3 14.2497 3H13.4997V0.75C13.4997 0.335775 13.1637 0 12.7497 0H12.1965C11.2895 0.396622 10.4411 0.902131 9.66758 1.5H11.9997V3H8.05556C6.15541 5.12302 5 7.92657 5 11C5 11.3367 5.01387 11.6703 5.04108 12ZM11.9997 6.75C11.9997 6.33577 11.6637 6 11.2497 6C10.8357 6 10.4997 6.33577 10.4997 6.75C10.4997 7.16423 10.8357 7.5 11.2497 7.5C11.6637 7.5 11.9997 7.16423 11.9997 6.75Z" fill="#505050"/>
</svg>
