<svg width="13" height="10" viewBox="0 0 13 10" fill="none" xmlns="http://www.w3.org/2000/svg">
<path d="M12.675 1.51786C12.5125 0.892858 12.1063 0.446429 11.5375 0.267857C10.5625 1.59655e-07 6.41875 0 6.41875 0C6.41875 0 2.35625 1.59655e-07 1.3 0.267857C0.731255 0.446429 0.324998 0.892858 0.162498 1.51786C-2.48197e-06 2.67857 0 5 0 5C0 5 2.46987e-06 7.32143 0.243752 8.48214C0.406252 9.10714 0.812498 9.55357 1.38125 9.73214C2.35625 10 6.5 10 6.5 10C6.5 10 10.5625 10 11.6187 9.73214C12.1875 9.55357 12.5938 9.10714 12.7563 8.48214C13 7.32143 13 5 13 5C13 5 13 2.67857 12.675 1.51786ZM5.2 7.14286V2.85714L8.6125 5L5.2 7.14286Z" fill="#313132"/>
</svg>
